<svg width="60" height="20" viewBox="0 0 60 20" fill="none" xmlns="http://www.w3.org/2000/svg">
  <rect width="60" height="20" rx="4" fill="#1A1F71"/>
  <path d="M25.454 13.5H23.102L24.627 6.5H26.979L25.454 13.5ZM20.292 6.5L18.088 11.081L17.838 9.859L17.079 6.785C17.079 6.785 16.988 6.5 16.657 6.5H13.106L13.065 6.623C13.065 6.623 14.097 6.854 15.263 7.482L17.255 13.5H19.692L22.895 6.5H20.292ZM44.945 13.5H47.235L45.235 6.5H43.218C42.928 6.5 42.718 6.691 42.608 6.926L38.863 13.5H41.3L41.814 12.217H44.695L44.945 13.5ZM42.453 10.362L43.648 7.734L44.335 10.362H42.453ZM35.819 8.781C35.828 8.297 35.478 7.944 34.665 7.667C34.162 7.5 33.841 7.388 33.845 7.167C33.845 6.973 34.071 6.766 34.566 6.766C34.966 6.757 35.261 6.844 35.518 6.938L35.647 6.995L35.872 6.611C35.589 6.494 35.148 6.364 34.592 6.364C32.942 6.364 31.784 7.22 31.775 8.456C31.766 9.378 32.591 9.891 33.207 10.19C33.841 10.497 34.054 10.693 34.05 10.964C34.045 11.378 33.541 11.568 33.073 11.568C32.416 11.568 32.068 11.471 31.531 11.229L31.314 11.128L31.083 11.534C31.457 11.711 32.15 11.866 32.869 11.875C34.622 11.875 35.759 11.032 35.772 9.721C35.777 9.464 35.651 9.266 35.364 9.1C35.219 9.012 34.871 8.849 34.875 8.628C34.875 8.433 35.118 8.23 35.647 8.23C35.994 8.221 36.252 8.303 36.466 8.398L36.591 8.459L36.821 8.079C36.625 7.984 36.252 7.88 35.831 7.88C34.129 7.88 32.979 8.74 32.97 9.976C32.961 10.891 33.781 11.407 34.406 11.705C35.049 12.012 35.261 12.209 35.257 12.48C35.253 12.897 34.741 13.087 34.282 13.087C33.625 13.087 33.278 12.988 32.741 12.746L32.524 12.645L32.293 13.051C32.667 13.228 33.36 13.384 34.077 13.392C35.831 13.392 36.955 12.554 36.968 11.243C36.973 10.985 36.846 10.787 36.56 10.621C36.415 10.533 36.067 10.37 36.071 10.149C36.071 9.954 36.314 9.751 36.843 9.751C37.19 9.742 37.448 9.824 37.662 9.919L37.787 9.98L38.013 9.6C37.817 9.505 37.444 9.401 37.023 9.401C35.321 9.401 34.171 10.261 34.162 11.497C34.153 12.412 34.973 12.928 35.598 13.226C36.241 13.533 36.454 13.73 36.449 14.001C36.445 14.418 35.935 14.608 35.476 14.608C34.819 14.608 34.472 14.509 33.935 14.267L33.718 14.166L33.487 14.572C33.861 14.749 34.554 14.905 35.272 14.913C37.025 14.913 38.149 14.075 38.162 12.764C38.167 12.507 38.04 12.309 37.754 12.143Z" fill="white"/>
</svg>